# File generated by ImageToStl.com - Free Image and 3D model conversion tools

o obj1
v -0.00310399 0.0195 0.0405
v -0.00310399 0.0215 0.0405
v -0.00268813 0.0195 0.04205199
v -0.00268813 0.0215 0.04205199
v -0.00155199 0.0195 0.04318813
v -0.00155199 0.0215 0.04318813
v 0 0.0195 0.04360399
v 0 0.0215 0.04360399
v 0.00155199 0.0195 0.04318813
v 0.00155199 0.0215 0.04318813
v 0.00268813 0.0195 0.04205199
v 0.00268813 0.0215 0.04205199
v 0.00310399 0.0195 0.0405
v 0.00310399 0.0215 0.0405
v 0.00268813 0.0195 0.03894801
v 0.00268813 0.0215 0.03894801
v 0.00155199 0.0195 0.03781187
v 0.00155199 0.0215 0.03781187
v 0 0.0195 0.03739602
v 0 0.0215 0.03739602
v -0.00155199 0.0195 0.03781187
v -0.00155199 0.0215 0.03781187
v -0.00268813 0.0195 0.03894801
v -0.00268813 0.0215 0.03894801
v -0.0105 0.0215 0.0405
v -0.0105 0.0195 0.0405
v -0.01007468 0.0195 0.04345819
v -0.01007468 0.0215 0.04345819
v -0.00883316 0.0195 0.04617673
v -0.00883316 0.0215 0.04617673
v -0.00687604 0.0195 0.04843537
v -0.00687604 0.0215 0.04843537
v -0.00436186 0.0195 0.05005113
v -0.00436186 0.0215 0.05005113
v -0.00149431 0.0195 0.05089312
v -0.00149431 0.0215 0.05089312
v 0.00149431 0.0195 0.05089312
v 0.00149431 0.0215 0.05089312
v 0.00436186 0.0195 0.05005113
v 0.00436186 0.0215 0.05005113
v 0.00687604 0.0195 0.04843537
v 0.00687604 0.0215 0.04843537
v 0.00883316 0.0195 0.04617673
v 0.00883316 0.0215 0.04617673
v 0.01007468 0.0195 0.04345819
v 0.01007468 0.0215 0.04345819
v 0.0105 0.0195 0.0405
v 0.0105 0.0215 0.0405
v -0.00310399 -0.0215 0.0405
v -0.00310399 -0.0195 0.0405
v -0.00268813 -0.0215 0.04205199
v -0.00268813 -0.0195 0.04205199
v -0.00155199 -0.0215 0.04318813
v -0.00155199 -0.0195 0.04318813
v 0 -0.0215 0.04360399
v 0 -0.0195 0.04360399
v 0.00155199 -0.0215 0.04318813
v 0.00155199 -0.0195 0.04318813
v 0.00268813 -0.0215 0.04205199
v 0.00268813 -0.0195 0.04205199
v 0.00310399 -0.0215 0.0405
v 0.00310399 -0.0195 0.0405
v 0.00268813 -0.0215 0.03894801
v 0.00268813 -0.0195 0.03894801
v 0.00155199 -0.0215 0.03781187
v 0.00155199 -0.0195 0.03781187
v 0 -0.0215 0.03739602
v 0 -0.0195 0.03739602
v -0.00155199 -0.0215 0.03781187
v -0.00155199 -0.0195 0.03781187
v -0.00268813 -0.0215 0.03894801
v -0.00268813 -0.0195 0.03894801
v -0.0105 -0.0195 0.0405
v -0.0105 -0.0215 0.0405
v -0.01007468 -0.0215 0.04345819
v -0.01007468 -0.0195 0.04345819
v -0.00883316 -0.0215 0.04617673
v -0.00883316 -0.0195 0.04617673
v -0.00687604 -0.0215 0.04843537
v -0.00687604 -0.0195 0.04843537
v -0.00436186 -0.0215 0.05005113
v -0.00436186 -0.0195 0.05005113
v -0.00149431 -0.0215 0.05089312
v -0.00149431 -0.0195 0.05089312
v 0.00149431 -0.0215 0.05089312
v 0.00149431 -0.0195 0.05089312
v 0.00436186 -0.0215 0.05005113
v 0.00436186 -0.0195 0.05005113
v 0.00687604 -0.0215 0.04843537
v 0.00687604 -0.0195 0.04843537
v 0.00883316 -0.0215 0.04617673
v 0.00883316 -0.0195 0.04617673
v 0.01007468 -0.0215 0.04345819
v 0.01007468 -0.0195 0.04345819
v 0.0105 -0.0215 0.0405
v 0.0105 -0.0195 0.0405
v -0.0105 0.0195 0.013
v -0.0105 0.0215 0.013
v 0.0105 0.0215 0.013
v 0.0105 0.0195 0.013
v -0.0105 -0.0215 0.013
v -0.0105 -0.0195 0.013
v 0.0105 -0.0195 0.013
v 0.0105 -0.0215 0.013
v -0.02150037 0.01714597 0.013
v -0.02421638 0.01303139 0.013
v -0.02615405 0.00849797 0.013
v -0.02725112 0.00369141 0.013
v -0.02747231 -0.00123378 0.013
v -0.02681052 -0.00611933 0.013
v -0.02528701 -0.01080819 0.013
v -0.02295076 -0.01514967 0.013
v -0.0119318 -0.02477664 0.013
v -0.01616409 -0.02224797 0.013
v -0.01987686 -0.01900422 0.013
v -0.00491031 0.02705806 0.013
v -0.00966281 0.02574646 0.013
v -0.01410473 0.02360734 0.013
v -0.01809332 0.02070947 0.013
v 0.02615405 0.00849797 0.013
v 0.02421638 0.01303139 0.013
v 0.01410473 0.02360734 0.013
v 0.01809332 0.02070947 0.013
v 0.02150037 0.01714597 0.013
v -0.00731601 -0.02650898 0.013
v -0.00246508 -0.02738929 0.013
v 0.00246508 -0.02738929 0.013
v 0.02725112 0.00369141 0.013
v 0.02747231 -0.00123378 0.013
v 0.02681052 -0.00611933 0.013
v 0.00731601 -0.02650898 0.013
v 0.0119318 -0.02477664 0.013
v 0.01616409 -0.02224797 0.013
v 0.01987686 -0.01900422 0.013
v 0.00966281 0.02574646 0.013
v 0.00491031 0.02705806 0.013
v 0 0.0275 0.013
v 0.02295076 -0.01514967 0.013
v 0.02528701 -0.01080819 0.013
v 0 0.0275 0
v 0.00491031 0.02705806 0
v 0.00966281 0.02574646 0
v 0.01410473 0.02360734 0
v 0.01809332 0.02070947 0
v 0.02150037 0.01714597 0
v 0.02421638 0.01303139 0
v 0.02615405 0.00849797 0
v 0.02725112 0.00369141 0
v 0.02747231 -0.00123378 0
v 0.02681052 -0.00611933 0
v 0.02528701 -0.01080819 0
v 0.02295076 -0.01514967 0
v 0.01987686 -0.01900422 0
v 0.01616409 -0.02224797 0
v 0.0119318 -0.02477664 0
v 0.00731601 -0.02650898 0
v 0.00246508 -0.02738929 0
v -0.00246508 -0.02738929 0
v -0.00731601 -0.02650898 0
v -0.0119318 -0.02477664 0
v -0.01616409 -0.02224797 0
v -0.01987686 -0.01900422 0
v -0.02295076 -0.01514967 0
v -0.02528701 -0.01080819 0
v -0.02681052 -0.00611933 0
v -0.02747231 -0.00123378 0
v -0.02725112 0.00369141 0
v -0.02615405 0.00849797 0
v -0.02421638 0.01303139 0
v -0.02150037 0.01714597 0
v -0.01809332 0.02070947 0
v -0.01410473 0.02360734 0
v -0.00966281 0.02574646 0
v -0.00491031 0.02705806 0
v 0 0 0
vn 0.98512 0 -0.17186
vn 0.93907 0 -0.34372
vn 0.76721 0 -0.6414
vn 0.6414 0 -0.76721
vn 0.34372 0 -0.93907
vn 0.17186 0 -0.98512
vn -0.17186 -0 -0.98512
vn -0.34372 -0 -0.93907
vn -0.6414 -0 -0.76721
vn -0.76721 -0 -0.6414
vn -0.93907 -0 -0.34372
vn -0.98512 -0 -0.17186
vn -0.98512 0 0.17186
vn -0.93907 0 0.34372
vn -0.76721 0 0.6414
vn -0.6414 0 0.76721
vn -0.34372 0 0.93907
vn -0.17186 0 0.98512
vn 0.17186 0 0.98512
vn 0.34372 0 0.93907
vn 0.6414 0 0.76721
vn 0.76721 0 0.6414
vn 0.93907 0 0.34372
vn 0.98512 0 0.17186
vn -0.9955 0 0.09477
vn -0.98187 0 0.18954
vn -0.92848 0 0.37139
vn -0.8887 0 0.45848
vn -0.78623 0 0.61793
vn -0.72353 0 0.69029
vn -0.58029 0 0.81441
vn -0.49975 0 0.86617
vn -0.32734 0 0.94491
vn -0.23548 0 0.97188
vn -0.04787 0 0.99885
vn 0.04787 0 0.99885
vn 0.23548 0 0.97188
vn 0.32734 0 0.94491
vn 0.49975 0 0.86617
vn 0.58029 0 0.81441
vn 0.72353 0 0.69029
vn 0.78623 0 0.61793
vn 0.8887 0 0.45848
vn 0.92848 0 0.37139
vn 0.98187 0 0.18954
vn 0.9955 0 0.09477
vn -1 0 0
vn 0 1 0
vn 1 0 0
vn 0 -1 0
vn 0 0 1
vn 0.11947 0.99284 0
vn 0.23701 0.97151 0
vn 0.29482 0.95555 0
vn 0.40667 0.91357 0
vn 0.46071 0.88755 0
vn 0.56326 0.82628 0
vn 0.61178 0.79103 0
vn 0.70175 0.71243 0
vn 0.74319 0.66908 0
vn 0.81768 0.57568 0
vn 0.85072 0.52562 0
vn 0.90733 0.42042 0
vn 0.9309 0.36527 0
vn 0.96782 0.25166 0
vn 0.98116 0.19319 0
vn 0.9972 0.0748 0
vn 0.99989 0.01489 0
vn 0.99453 -0.10446 0
vn 0.98648 -0.16389 0
vn 0.9599 -0.28036 0
vn 0.94136 -0.3374 0
vn 0.89441 -0.44725 0
vn 0.86599 -0.50006 0
vn 0.80018 -0.59976 0
vn 0.76278 -0.64665 0
vn 0.68023 -0.733 0
vn 0.63506 -0.77246 0
vn 0.53841 -0.84268 0
vn 0.48693 -0.87344 0
vn 0.37929 -0.92528 0
vn 0.32314 -0.94635 0
vn 0.20798 -0.97813 0
vn 0.14897 -0.98884 0
vn 0.02999 -0.99955 0
vn -0.02999 -0.99955 0
vn -0.14897 -0.98884 0
vn -0.20798 -0.97813 0
vn -0.32314 -0.94635 0
vn -0.37929 -0.92528 0
vn -0.48693 -0.87344 0
vn -0.53841 -0.84268 0
vn -0.63506 -0.77246 0
vn -0.68023 -0.733 0
vn -0.76278 -0.64665 0
vn -0.80018 -0.59976 0
vn -0.86599 -0.50006 0
vn -0.89441 -0.44725 0
vn -0.94136 -0.3374 0
vn -0.9599 -0.28036 0
vn -0.98648 -0.16389 0
vn -0.99453 -0.10446 0
vn -0.99989 0.01489 0
vn -0.9972 0.0748 0
vn -0.98116 0.19319 0
vn -0.96782 0.25166 0
vn -0.9309 0.36527 0
vn -0.90733 0.42042 0
vn -0.85072 0.52562 0
vn -0.81768 0.57568 0
vn -0.74319 0.66908 0
vn -0.70175 0.71243 0
vn -0.61178 0.79103 0
vn -0.56326 0.82628 0
vn -0.46071 0.88755 0
vn -0.40667 0.91357 0
vn -0.29482 0.95555 0
vn -0.23701 0.97151 0
vn -0.11947 0.99284 0
vn -0.05973 0.99821 0
vn 0.05973 0.99821 0
vn 0 0 -1
f 1//1 2//1 3//1
f 3//2 2//2 4//2
f 3//3 4//3 5//3
f 5//4 4//4 6//4
f 5//5 6//5 7//5
f 7//6 6//6 8//6
f 7//7 8//7 9//7
f 9//8 8//8 10//8
f 9//9 10//9 11//9
f 11//10 10//10 12//10
f 11//11 12//11 13//11
f 13//12 12//12 14//12
f 13//13 14//13 15//13
f 15//14 14//14 16//14
f 15//15 16//15 17//15
f 17//16 16//16 18//16
f 17//17 18//17 19//17
f 19//18 18//18 20//18
f 19//19 20//19 21//19
f 21//20 20//20 22//20
f 21//21 22//21 23//21
f 23//22 22//22 24//22
f 23//23 24//23 1//23
f 1//24 24//24 2//24
f 25//25 26//25 27//25
f 25//26 27//26 28//26
f 28//27 27//27 29//27
f 28//28 29//28 30//28
f 30//29 29//29 31//29
f 30//30 31//30 32//30
f 32//31 31//31 33//31
f 32//32 33//32 34//32
f 34//33 33//33 35//33
f 34//34 35//34 36//34
f 36//35 35//35 37//35
f 36//36 37//36 38//36
f 38//37 37//37 39//37
f 38//38 39//38 40//38
f 40//39 39//39 41//39
f 40//40 41//40 42//40
f 42//41 41//41 43//41
f 42//42 43//42 44//42
f 44//43 43//43 45//43
f 44//44 45//44 46//44
f 46//45 45//45 47//45
f 46//46 47//46 48//46
f 49//1 50//1 51//1
f 51//2 50//2 52//2
f 51//3 52//3 53//3
f 53//4 52//4 54//4
f 53//5 54//5 55//5
f 55//6 54//6 56//6
f 55//7 56//7 57//7
f 57//8 56//8 58//8
f 57//9 58//9 59//9
f 59//10 58//10 60//10
f 59//11 60//11 61//11
f 61//12 60//12 62//12
f 61//13 62//13 63//13
f 63//14 62//14 64//14
f 63//15 64//15 65//15
f 65//16 64//16 66//16
f 65//17 66//17 67//17
f 67//18 66//18 68//18
f 67//19 68//19 69//19
f 69//20 68//20 70//20
f 69//21 70//21 71//21
f 71//22 70//22 72//22
f 71//23 72//23 49//23
f 49//24 72//24 50//24
f 73//25 74//25 75//25
f 73//26 75//26 76//26
f 76//27 75//27 77//27
f 76//28 77//28 78//28
f 78//29 77//29 79//29
f 78//30 79//30 80//30
f 80//31 79//31 81//31
f 80//32 81//32 82//32
f 82//33 81//33 83//33
f 82//34 83//34 84//34
f 84//35 83//35 85//35
f 84//36 85//36 86//36
f 86//37 85//37 87//37
f 86//38 87//38 88//38
f 88//39 87//39 89//39
f 88//40 89//40 90//40
f 90//41 89//41 91//41
f 90//42 91//42 92//42
f 92//43 91//43 93//43
f 92//44 93//44 94//44
f 94//45 93//45 95//45
f 94//46 95//46 96//46
f 97//47 26//47 98//47
f 98//47 26//47 25//47
f 8//48 6//48 34//48
f 34//48 6//48 32//48
f 32//48 6//48 4//48
f 32//48 4//48 30//48
f 30//48 4//48 28//48
f 28//48 4//48 2//48
f 28//48 2//48 25//48
f 25//48 2//48 24//48
f 25//48 24//48 98//48
f 98//48 24//48 22//48
f 98//48 22//48 99//48
f 22//48 20//48 99//48
f 99//48 20//48 18//48
f 99//48 18//48 48//48
f 12//48 10//48 42//48
f 34//48 36//48 8//48
f 8//48 36//48 38//48
f 8//48 38//48 10//48
f 10//48 38//48 40//48
f 10//48 40//48 42//48
f 18//48 16//48 48//48
f 48//48 16//48 14//48
f 48//48 14//48 46//48
f 46//48 14//48 12//48
f 46//48 12//48 44//48
f 44//48 12//48 42//48
f 100//49 99//49 47//49
f 47//49 99//49 48//49
f 43//50 41//50 11//50
f 11//50 41//50 9//50
f 43//50 11//50 45//50
f 45//50 11//50 13//50
f 45//50 13//50 47//50
f 47//50 13//50 15//50
f 47//50 15//50 100//50
f 15//50 17//50 100//50
f 100//50 17//50 19//50
f 100//50 19//50 97//50
f 97//50 19//50 21//50
f 97//50 21//50 26//50
f 21//50 23//50 26//50
f 26//50 23//50 1//50
f 26//50 1//50 27//50
f 27//50 1//50 3//50
f 5//50 31//50 3//50
f 3//50 31//50 29//50
f 3//50 29//50 27//50
f 41//50 39//50 9//50
f 9//50 39//50 37//50
f 9//50 37//50 7//50
f 7//50 37//50 35//50
f 7//50 35//50 5//50
f 5//50 35//50 33//50
f 5//50 33//50 31//50
f 101//47 74//47 102//47
f 102//47 74//47 73//47
f 56//48 54//48 82//48
f 82//48 54//48 80//48
f 80//48 54//48 52//48
f 80//48 52//48 78//48
f 78//48 52//48 76//48
f 76//48 52//48 50//48
f 76//48 50//48 73//48
f 73//48 50//48 72//48
f 73//48 72//48 102//48
f 102//48 72//48 70//48
f 102//48 70//48 103//48
f 70//48 68//48 103//48
f 103//48 68//48 66//48
f 103//48 66//48 96//48
f 60//48 58//48 90//48
f 82//48 84//48 56//48
f 56//48 84//48 86//48
f 56//48 86//48 58//48
f 58//48 86//48 88//48
f 58//48 88//48 90//48
f 66//48 64//48 96//48
f 96//48 64//48 62//48
f 96//48 62//48 94//48
f 94//48 62//48 60//48
f 94//48 60//48 92//48
f 92//48 60//48 90//48
f 104//49 103//49 95//49
f 95//49 103//49 96//49
f 91//50 89//50 59//50
f 59//50 89//50 57//50
f 91//50 59//50 93//50
f 93//50 59//50 61//50
f 93//50 61//50 95//50
f 95//50 61//50 63//50
f 95//50 63//50 104//50
f 63//50 65//50 104//50
f 104//50 65//50 67//50
f 104//50 67//50 101//50
f 101//50 67//50 69//50
f 101//50 69//50 74//50
f 69//50 71//50 74//50
f 74//50 71//50 49//50
f 74//50 49//50 75//50
f 75//50 49//50 51//50
f 53//50 79//50 51//50
f 51//50 79//50 77//50
f 51//50 77//50 75//50
f 89//50 87//50 57//50
f 57//50 87//50 85//50
f 57//50 85//50 55//50
f 55//50 85//50 83//50
f 55//50 83//50 53//50
f 53//50 83//50 81//50
f 53//50 81//50 79//50
f 105//51 106//51 97//51
f 97//51 106//51 107//51
f 97//51 107//51 108//51
f 109//51 110//51 102//51
f 102//51 110//51 111//51
f 102//51 111//51 112//51
f 113//51 101//51 114//51
f 114//51 101//51 102//51
f 114//51 102//51 115//51
f 115//51 102//51 112//51
f 116//51 117//51 98//51
f 98//51 117//51 118//51
f 98//51 118//51 97//51
f 97//51 118//51 119//51
f 97//51 119//51 105//51
f 100//51 120//51 121//51
f 122//51 99//51 123//51
f 123//51 99//51 100//51
f 123//51 100//51 124//51
f 124//51 100//51 121//51
f 113//51 125//51 101//51
f 101//51 125//51 126//51
f 101//51 126//51 104//51
f 104//51 126//51 127//51
f 128//51 102//51 129//51
f 129//51 102//51 103//51
f 129//51 103//51 130//51
f 108//51 109//51 97//51
f 97//51 109//51 102//51
f 97//51 102//51 100//51
f 100//51 102//51 128//51
f 100//51 128//51 120//51
f 127//51 131//51 104//51
f 104//51 131//51 132//51
f 104//51 132//51 103//51
f 103//51 132//51 133//51
f 103//51 133//51 134//51
f 122//51 135//51 99//51
f 99//51 135//51 136//51
f 99//51 136//51 98//51
f 98//51 136//51 137//51
f 98//51 137//51 116//51
f 134//51 138//51 103//51
f 103//51 138//51 139//51
f 103//51 139//51 130//51
f 140//52 136//52 141//52
f 141//53 136//53 135//53
f 141//54 135//54 142//54
f 142//55 135//55 122//55
f 142//56 122//56 143//56
f 143//57 122//57 123//57
f 143//58 123//58 144//58
f 144//59 123//59 124//59
f 144//60 124//60 145//60
f 145//61 124//61 121//61
f 145//62 121//62 146//62
f 146//63 121//63 120//63
f 146//64 120//64 147//64
f 147//65 120//65 128//65
f 147//66 128//66 148//66
f 148//67 128//67 129//67
f 148//68 129//68 149//68
f 149//69 129//69 130//69
f 149//70 130//70 150//70
f 150//71 130//71 139//71
f 150//72 139//72 151//72
f 151//73 139//73 138//73
f 151//74 138//74 152//74
f 152//75 138//75 134//75
f 152//76 134//76 153//76
f 153//77 134//77 133//77
f 153//78 133//78 154//78
f 154//79 133//79 132//79
f 154//80 132//80 155//80
f 155//81 132//81 131//81
f 155//82 131//82 156//82
f 156//83 131//83 127//83
f 156//84 127//84 157//84
f 157//85 127//85 126//85
f 157//86 126//86 158//86
f 158//87 126//87 125//87
f 158//88 125//88 159//88
f 159//89 125//89 113//89
f 159//90 113//90 160//90
f 160//91 113//91 114//91
f 160//92 114//92 161//92
f 161//93 114//93 115//93
f 161//94 115//94 162//94
f 162//95 115//95 112//95
f 162//96 112//96 163//96
f 163//97 112//97 111//97
f 163//98 111//98 164//98
f 164//99 111//99 110//99
f 164//100 110//100 165//100
f 165//101 110//101 109//101
f 165//102 109//102 166//102
f 166//103 109//103 108//103
f 166//104 108//104 167//104
f 167//105 108//105 107//105
f 167//106 107//106 168//106
f 168//107 107//107 106//107
f 168//108 106//108 169//108
f 169//109 106//109 105//109
f 169//110 105//110 170//110
f 170//111 105//111 119//111
f 170//112 119//112 171//112
f 171//113 119//113 118//113
f 171//114 118//114 172//114
f 172//115 118//115 117//115
f 172//116 117//116 173//116
f 173//117 117//117 116//117
f 173//118 116//118 174//118
f 174//119 116//119 137//119
f 174//120 137//120 140//120
f 140//121 137//121 136//121
f 140//122 141//122 175//122
f 140//122 175//122 174//122
f 171//122 172//122 175//122
f 175//122 172//122 173//122
f 175//122 173//122 174//122
f 168//122 169//122 175//122
f 175//122 169//122 170//122
f 175//122 170//122 171//122
f 165//122 166//122 175//122
f 175//122 166//122 167//122
f 175//122 167//122 168//122
f 162//122 163//122 175//122
f 175//122 163//122 164//122
f 175//122 164//122 165//122
f 159//122 160//122 175//122
f 175//122 160//122 161//122
f 175//122 161//122 162//122
f 156//122 157//122 175//122
f 175//122 157//122 158//122
f 175//122 158//122 159//122
f 153//122 154//122 175//122
f 175//122 154//122 155//122
f 175//122 155//122 156//122
f 150//122 151//122 175//122
f 175//122 151//122 152//122
f 175//122 152//122 153//122
f 147//122 148//122 175//122
f 175//122 148//122 149//122
f 175//122 149//122 150//122
f 144//122 145//122 175//122
f 175//122 145//122 146//122
f 175//122 146//122 147//122
f 141//122 142//122 175//122
f 175//122 142//122 143//122
f 175//122 143//122 144//122
# Vertices: 175, normals: 122, texture coordinates: 0, faces: 354

