# File generated by ImageToStl.com - Free Image and 3D model conversion tools

o obj1
v -0.00171443 -0.0108023 -0
v -0.00123717 -0.01086731 -0
v -0.00171443 -0.0108023 0.002
v -0.00123717 -0.01086731 0.002
v 0.00170757 -0.01080338 -0
v 0.00218156 -0.01071773 -0
v 0.00170757 -0.01080338 0.002
v 0.00218156 -0.01071773 0.002
v -0.00496862 -0.00974381 -0
v -0.0045348 -0.00995311 -0
v -0.00496862 -0.00974381 0.002
v -0.0045348 -0.00995311 0.002
v -0.00773644 -0.00773152 -0
v -0.00738854 -0.00806464 -0
v -0.00773644 -0.00773152 0.002
v -0.00738854 -0.00806464 0.002
v -0.00974696 -0.00496242 -0
v -0.00951903 -0.00538675 -0
v -0.00974696 -0.00496242 0.002
v -0.00951903 -0.00538675 0.002
v -0.01080338 -0.00170757 -0
v -0.01071773 -0.00218156 -0
v -0.01080338 -0.00170757 0.002
v -0.01071773 -0.00218156 0.002
v -0.0108023 0.00171443 -0
v -0.01086731 0.00123717 -0
v -0.0108023 0.00171443 0.002
v -0.01086731 0.00123717 0.002
v 0.00474646 -0.01036889 0.002
v 0.00474646 -0.01036889 -0
v 0.00470442 -0.01013277 0.002
v 0.00470442 -0.01013277 -0
v 0.00478309 -0.00990621 0.002
v 0.00478309 -0.00990621 -0
v 0.00496242 -0.00974696 0.002
v 0.00496242 -0.00974696 -0
v 0.00493844 -0.01283255 0.002
v 0.00412061 -0.01311805 0.002
v 0.00493844 -0.01283255 -0
v 0.00412061 -0.01311805 -0
v 0.00242104 -0.01073077 0.002
v 0.00242104 -0.01073077 -0
v 0.00262362 -0.01085915 0.002
v 0.00262362 -0.01085915 -0
v 0.00273765 -0.01107014 0.002
v 0.00273765 -0.01107014 -0
v 0.00130999 -0.01132813 0.002
v 0.00130999 -0.01132813 -0
v 0.00134297 -0.01109058 0.002
v 0.00134297 -0.01109058 -0
v 0.0014878 -0.01089942 0.002
v 0.0014878 -0.01089942 -0
v 0.00073126 -0.01373054 0.002
v -0.00013477 -0.01374934 0.002
v 0.00073126 -0.01373054 -0
v -0.00013477 -0.01374934 -0
v -0.00101345 -0.01095371 0.002
v -0.00101345 -0.01095371 -0
v -0.00086045 -0.01113841 0.002
v -0.00086045 -0.01113841 -0
v -0.0008172 -0.01137431 0.002
v -0.0008172 -0.01137431 -0
v -0.00225471 -0.01117851 0.002
v -0.00225471 -0.01117851 -0
v -0.00214994 -0.01096277 0.002
v -0.00214994 -0.01096277 -0
v -0.00195312 -0.01082572 0.002
v -0.00195312 -0.01082572 -0
v -0.0035475 -0.01328449 0.002
v -0.00437695 -0.01303475 0.002
v -0.0035475 -0.01328449 -0
v -0.00437695 -0.01303475 -0
v -0.00434873 -0.01010443 0.002
v -0.00434873 -0.01010443 -0
v -0.0042603 -0.01032736 0.002
v -0.0042603 -0.01032736 -0
v -0.00429206 -0.01056508 0.002
v -0.00429206 -0.01056508 -0
v -0.00559871 -0.00993465 0.002
v -0.00559871 -0.00993465 -0
v -0.00543239 -0.00976185 0.002
v -0.00543239 -0.00976185 -0
v -0.00520286 -0.00969232 0.002
v -0.00520286 -0.00969232 -0
v -0.007479 -0.01153807 0.002
v -0.00819069 -0.01104423 0.002
v -0.007479 -0.01153807 -0
v -0.00819069 -0.01104423 -0
v -0.00725833 -0.00826605 0.002
v -0.00725833 -0.00826605 -0
v -0.00724311 -0.0085054 0.002
v -0.00724311 -0.0085054 -0
v -0.00734678 -0.00872167 0.002
v -0.00734678 -0.00872167 -0
v -0.00839466 -0.00771831 0.002
v -0.00839466 -0.00771831 -0
v -0.00818309 -0.00760536 0.002
v -0.00818309 -0.00760536 -0
v -0.00794331 -0.00761018 0.002
v -0.00794331 -0.00761018 -0
v -0.01067841 -0.00866221 0.002
v -0.01120266 -0.00797263 0.002
v -0.01067841 -0.00866221 -0
v -0.01120266 -0.00797263 -0
v -0.00945743 -0.00561853 0.002
v -0.00945743 -0.00561853 -0
v -0.00951692 -0.00585087 0.002
v -0.00951692 -0.00585087 -0
v -0.00968235 -0.00602453 0.002
v -0.00968235 -0.00602453 -0
v -0.01036889 -0.00474646 0.002
v -0.01036889 -0.00474646 -0
v -0.01013277 -0.00470442 0.002
v -0.01013277 -0.00470442 -0
v -0.00990621 -0.00478309 0.002
v -0.00990621 -0.00478309 -0
v -0.01283255 -0.00493844 0.002
v -0.01311805 -0.00412061 0.002
v -0.01283255 -0.00493844 -0
v -0.01311805 -0.00412061 -0
v -0.01073077 -0.00242104 0.002
v -0.01073077 -0.00242104 -0
v -0.01085915 -0.00262362 0.002
v -0.01085915 -0.00262362 -0
v -0.01107014 -0.00273765 0.002
v -0.01107014 -0.00273765 -0
v -0.01132813 -0.00130999 0.002
v -0.01132813 -0.00130999 -0
v -0.01109058 -0.00134297 0.002
v -0.01109058 -0.00134297 -0
v -0.01089942 -0.0014878 0.002
v -0.01089942 -0.0014878 -0
v -0.01373054 -0.00073126 0.002
v -0.01374934 0.00013477 0.002
v -0.01373054 -0.00073126 -0
v -0.01374934 0.00013477 -0
v -0.01095371 0.00101345 0.002
v -0.01095371 0.00101345 -0
v -0.01113841 0.00086045 0.002
v -0.01113841 0.00086045 -0
v -0.01137431 0.0008172 0.002
v -0.01137431 0.0008172 -0
v -0.01117851 0.00225471 0.002
v -0.01117851 0.00225471 -0
v -0.01096277 0.00214994 0.002
v -0.01096277 0.00214994 -0
v -0.01082572 0.00195312 0.002
v -0.01082572 0.00195312 -0
v -0.01328449 0.0035475 0.002
v -0.01303475 0.00437695 0.002
v -0.01328449 0.0035475 -0
v -0.01303475 0.00437695 -0
v -0.00995311 0.0045348 0.002
v -0.00995311 0.0045348 -0
v -0.01010443 0.00434873 0.002
v -0.01010443 0.00434873 -0
v -0.01032736 0.0042603 0.002
v -0.01032736 0.0042603 -0
v -0.01056508 0.00429206 0.002
v -0.01056508 0.00429206 -0
v 0.02910509 -0.00049535 0.002
v 0.02865084 0.00010216 0.002
v 0.00983396 -0.00478772 0.002
v -0.00147516 0.01083757 0.002
v -0.00052996 0.00129582 0.002
v 0.00018895 0.00138719 0.002
v -0.00129582 -0.00052996 0.002
v -0.00085723 -0.00110687 0.002
v 0.00072479 0.01091346 0.002
v 0.00085723 0.00110687 0.002
v 0.00961694 0.00520993 0.002
v 0.00837895 0.00703008 0.002
v 0.00680158 0.00856548 0.002
v 0.02979724 -0.00078569 0.002
v 0.03027572 -0.00333895 0.002
v 0.03054182 -0.00069105 0.002
v 0.03158341 -0.00301916 0.002
v 0.03113933 -0.0002368 0.002
v 0.00494871 0.00975393 0.002
v 0.00289539 0.0105473 0.002
v -0.00138719 0.00018895 0.002
v -0.00110687 0.00085723 0.002
v -0.00361536 0.0103227 0.002
v -0.00560912 0.00938971 0.002
v -0.00737569 0.00807639 0.002
v -0.0088435 0.00643594 0.002
v 0.0285562 0.00084674 0.002
v 0.02884654 0.00153889 0.002
v 0.03010231 0.00464955 0.002
v 0.02944405 0.00199314 0.002
v 0.03018863 0.00208778 0.002
v 0.03142265 0.00438681 0.002
v 0.03088078 0.00179744 0.002
v 0.03142967 0.00045535 0.002
v 0.03392036 0.00140957 0.002
v 0.03133503 0.00119993 0.002
v 0.03344628 0.00266956 0.002
v 0.03258105 0.00370091 0.002
v -0.00572058 -0.01015515 0.002
v -0.00811608 -0.01048564 0.002
v -0.00781759 -0.00944199 0.002
v 0.03271095 -0.00228364 0.002
v 0.03353062 -0.00121572 0.002
v 0.03394957 6.366E-05 0.002
v -0.00447302 -0.01251975 0.002
v -0.00273013 -0.01233048 0.002
v -0.0044786 -0.01248044 0.002
v -0.01059709 -0.00485322 0.002
v -0.0115803 -0.00503895 0.002
v -0.01098043 -0.00497313 0.002
v -0.01097768 -0.00749952 0.002
v -0.0094564 -0.00837084 0.002
v -0.01095909 -0.00746443 0.002
v -0.01328923 0.00038528 0.002
v -0.01257064 -0.00121382 0.002
v -0.01325357 0.00040274 0.002
v -0.01187442 -0.00304366 0.002
v -0.01272935 -0.00371255 0.002
v -0.01275787 -0.00374018 0.002
v -0.01251975 0.00447302 0.002
v -0.01233048 0.00273013 0.002
v -0.01248044 0.0044786 0.002
v -0.00812291 -0.01052475 0.002
v -0.00640684 -0.01088333 0.002
v -0.00596022 -0.01047748 0.002
v 0.00052996 -0.00129582 0.002
v -0.00018895 -0.00138719 0.002
v 0.00485322 -0.01059709 0.002
v 0.00503895 -0.0115803 0.002
v 0.00497313 -0.01098043 0.002
v -0.00451724 -0.01139563 0.002
v -0.00243079 -0.01180648 0.002
v -0.00230248 -0.01142588 0.002
v 0.00129582 0.00052996 0.002
v 0.00138719 -0.00018895 0.002
v 0.00893487 -0.00630849 0.002
v 0.00110687 -0.00085723 0.002
v 0.00780268 -0.00766467 0.002
v 0.00646691 -0.00882088 0.002
v 0.00304366 -0.01187442 0.002
v 0.00371255 -0.01272935 0.002
v 0.00374018 -0.01275787 0.002
v -0.0103527 -0.0065641 0.002
v -0.00890623 -0.00812286 0.002
v -0.0085787 -0.00789037 0.002
v -0.01223379 0.0007747 0.002
v -0.01197979 -0.00133659 0.002
v -0.01157816 -0.001341 0.002
v -0.01139563 0.00451724 0.002
v -0.01180648 0.00243079 0.002
v -0.01142588 0.00230248 0.002
v -0.00038528 -0.01328923 0.002
v 0.00121382 -0.01257064 0.002
v -0.00040274 -0.01325357 0.002
v -0.0007747 -0.01223379 0.002
v 0.00133659 -0.01197979 0.002
v 0.001341 -0.01157816 0.002
v 0.03018863 0.00208778 -0
v 0.03088078 0.00179744 -0
v 0.03133503 0.00119993 -0
v 0.03142967 0.00045535 -0
v 0.03113933 -0.0002368 -0
v 0.03054182 -0.00069105 -0
v 0.02979724 -0.00078569 -0
v 0.02910509 -0.00049535 -0
v 0.02865084 0.00010216 -0
v 0.0285562 0.00084674 -0
v 0.02884654 0.00153889 -0
v 0.02944405 0.00199314 -0
v 0.00018895 0.00138719 -0
v 0.00085723 0.00110687 -0
v 0.00129582 0.00052996 -0
v 0.00138719 -0.00018895 -0
v 0.00110687 -0.00085723 -0
v 0.00052996 -0.00129582 -0
v -0.00018895 -0.00138719 -0
v -0.00085723 -0.00110687 -0
v -0.00129582 -0.00052996 -0
v -0.00138719 0.00018895 -0
v -0.00110687 0.00085723 -0
v -0.00052996 0.00129582 -0
v 0.00961694 0.00520993 -0
v 0.00837895 0.00703008 -0
v 0.00680158 0.00856548 -0
v 0.00494871 0.00975393 -0
v 0.00289539 0.0105473 -0
v 0.00072479 0.01091346 -0
v -0.00147516 0.01083757 -0
v -0.00361536 0.0103227 -0
v -0.00560912 0.00938971 -0
v -0.00737569 0.00807639 -0
v -0.0088435 0.00643594 -0
v 0.03010231 0.00464955 -0
v 0.03027572 -0.00333895 -0
v 0.03158341 -0.00301916 -0
v 0.03271095 -0.00228364 -0
v 0.03353062 -0.00121572 -0
v 0.03394957 6.366E-05 -0
v 0.03392036 0.00140957 -0
v 0.03344628 0.00266956 -0
v 0.03258105 0.00370091 -0
v 0.03142265 0.00438681 -0
v 0.00983396 -0.00478772 -0
v 0.00646691 -0.00882088 -0
v 0.00780268 -0.00766467 -0
v 0.00893487 -0.00630849 -0
v 0.00503895 -0.0115803 -0
v 0.00497313 -0.01098043 -0
v 0.00485322 -0.01059709 -0
v 0.00304366 -0.01187442 -0
v 0.00371255 -0.01272935 -0
v 0.00374018 -0.01275787 -0
v 0.00121382 -0.01257064 -0
v 0.00133659 -0.01197979 -0
v 0.001341 -0.01157816 -0
v -0.0007747 -0.01223379 -0
v -0.00040274 -0.01325357 -0
v -0.00038528 -0.01328923 -0
v -0.00273013 -0.01233048 -0
v -0.00243079 -0.01180648 -0
v -0.00230248 -0.01142588 -0
v -0.00451724 -0.01139563 -0
v -0.0044786 -0.01248044 -0
v -0.00447302 -0.01251975 -0
v -0.00640684 -0.01088333 -0
v -0.00596022 -0.01047748 -0
v -0.00572058 -0.01015515 -0
v -0.00781759 -0.00944199 -0
v -0.00811608 -0.01048564 -0
v -0.00812291 -0.01052475 -0
v -0.0094564 -0.00837084 -0
v -0.00890623 -0.00812286 -0
v -0.0085787 -0.00789037 -0
v -0.0103527 -0.0065641 -0
v -0.01095909 -0.00746443 -0
v -0.01097768 -0.00749952 -0
v -0.0115803 -0.00503895 -0
v -0.01098043 -0.00497313 -0
v -0.01059709 -0.00485322 -0
v -0.01187442 -0.00304366 -0
v -0.01272935 -0.00371255 -0
v -0.01275787 -0.00374018 -0
v -0.01257064 -0.00121382 -0
v -0.01197979 -0.00133659 -0
v -0.01157816 -0.001341 -0
v -0.01223379 0.0007747 -0
v -0.01325357 0.00040274 -0
v -0.01328923 0.00038528 -0
v -0.01233048 0.00273013 -0
v -0.01180648 0.00243079 -0
v -0.01142588 0.00230248 -0
v -0.01139563 0.00451724 -0
v -0.01248044 0.0044786 -0
v -0.01251975 0.00447302 -0
vn -0.14223 -0.98983 0
vn -0.12769 -0.99181 0
vn 0.1706 -0.98534 0
vn 0.18505 -0.98273 0
vn -0.44115 -0.89743 0
vn -0.42792 -0.90381 0
vn -0.69688 -0.71719 0
vn -0.68627 -0.72734 0
vn -0.88439 -0.46674 0
vn -0.87745 -0.47967 0
vn -0.98534 -0.1706 0
vn -0.98273 -0.18505 0
vn -0.98983 0.14223 0
vn -0.99181 0.12769 0
vn 0.96562 0.25994 -0
vn 0.996 0.08934 -0
vn 0.96953 -0.24496 -0
vn 0.91269 -0.40865 -0
vn 0.72628 -0.6874 -0
vn 0.5967 -0.80246 -0
vn 0.33948 -0.94061 0
vn 0.31965 -0.94754 0
vn 0.03233 -0.99948 0
vn -0.1407 -0.99005 0
vn -0.46009 -0.88787 0
vn -0.60646 -0.79512 0
vn -0.83522 -0.54992 0
vn -0.91761 -0.39748 0
vn 0.99869 -0.05118 -0
vn 0.97486 -0.22281 -0
vn 0.84639 -0.53257 -0
vn 0.74174 -0.67069 -0
vn 0.47831 -0.87819 -0
vn 0.31953 -0.94758 0
vn 0.0322 -0.99948 0
vn 0.0112 -0.99994 0
vn -0.27811 -0.96055 0
vn -0.43975 -0.89812 0
vn -0.71194 -0.70224 0
vn -0.82248 -0.56879 0
vn -0.96427 -0.26491 0
vn -0.99553 -0.09446 0
vn 0.934 -0.35728 -0
vn 0.85829 -0.51316 -0
vn 0.64039 -0.76805 -0
vn 0.49818 -0.86707 -0
vn 0.18352 -0.98302 0
vn 0.01107 -0.99994 0
vn -0.27823 -0.96051 0
vn -0.29835 -0.95446 0
vn -0.56132 -0.8276 0
vn -0.69576 -0.71827 0
vn -0.8941 -0.44787 0
vn -0.95799 -0.2868 0
vn -0.99894 0.04604 0
vn -0.97599 0.21779 0
vn 0.77788 -0.62842 -0
vn 0.65771 -0.75327 -0
vn 0.37171 -0.92835 0
vn 0.20586 -0.97858 0
vn -0.12923 -0.99162 0
vn -0.29847 -0.95442 0
vn -0.56143 -0.82753 0
vn -0.57869 -0.81555 0
vn -0.78959 -0.61363 0
vn -0.88367 -0.46811 0
vn -0.98874 -0.14966 0
vn -0.99973 0.02328 0
vn -0.93582 0.35247 0
vn -0.86092 0.50873 0
vn 0.54561 -0.83804 -0
vn 0.39275 -0.91965 0
vn 0.06664 -0.99778 0
vn -0.10661 -0.9943 0
vn -0.42933 -0.90315 0
vn -0.57879 -0.81547 0
vn -0.78967 -0.61353 0
vn -0.80238 -0.59681 0
vn -0.94057 -0.3396 0
vn -0.98507 -0.17213 0
vn -0.98659 0.1632 0
vn -0.94361 0.33107 0
vn -0.7811 0.62441 0
vn -0.66158 0.74987 0
vn 0.25994 -0.96562 0
vn 0.08934 -0.996 0
vn -0.24496 -0.96953 0
vn -0.40865 -0.91269 0
vn -0.6874 -0.72628 0
vn -0.80246 -0.5967 0
vn -0.94061 -0.33948 0
vn -0.94754 -0.31965 0
vn -0.99948 -0.03233 0
vn -0.99005 0.1407 0
vn -0.88787 0.46009 0
vn -0.79512 0.60646 0
vn -0.54992 0.83522 0
vn -0.39748 0.91761 -0
vn -0.05118 -0.99869 0
vn -0.22281 -0.97486 0
vn -0.53257 -0.84639 0
vn -0.67069 -0.74174 0
vn -0.87819 -0.47831 0
vn -0.94758 -0.31953 0
vn -0.99948 -0.0322 0
vn -0.99994 -0.0112 0
vn -0.96055 0.27811 0
vn -0.89812 0.43975 0
vn -0.70224 0.71194 0
vn -0.56879 0.82248 0
vn -0.26491 0.96427 -0
vn -0.09446 0.99553 -0
vn -0.35728 -0.934 0
vn -0.51316 -0.85829 0
vn -0.76805 -0.64039 0
vn -0.86707 -0.49818 0
vn -0.98302 -0.18352 0
vn -0.99994 -0.01107 0
vn -0.96051 0.27823 0
vn -0.95446 0.29835 0
vn -0.8276 0.56132 0
vn -0.71827 0.69576 0
vn -0.44787 0.8941 0
vn -0.2868 0.95799 -0
vn 0.04604 0.99894 -0
vn 0.21779 0.97599 -0
vn 0 0 1
vn -0.30324 -0.95291 0
vn -0.46732 -0.88409 0
vn -0.73907 -0.67362 0
vn -0.84675 -0.53198 0
vn -0.97687 -0.21384 0
vn -0.9993 -0.03733 0
vn -0.95291 0.30324 0
vn -0.88409 0.46732 0
vn -0.67362 0.73907 0
vn -0.53198 0.84675 0
vn -0.21384 0.97687 -0
vn -0.03733 0.9993 -0
vn 0.30324 0.95291 -0
vn 0.46732 0.88409 -0
vn 0.73907 0.67362 -0
vn 0.84675 0.53198 -0
vn 0.97687 0.21384 -0
vn 0.9993 0.03733 -0
vn 0.95291 -0.30324 -0
vn 0.88409 -0.46732 -0
vn 0.67362 -0.73907 -0
vn 0.53198 -0.84675 -0
vn 0.21384 -0.97687 0
vn 0.03733 -0.9993 0
vn 0.84535 0.53422 -0
vn 0.80745 0.58994 -0
vn 0.72126 0.69267 -0
vn 0.67297 0.73967 -0
vn 0.56795 0.82306 -0
vn 0.51123 0.85945 -0
vn 0.39164 0.92012 -0
vn 0.32878 0.94441 -0
vn 0.19947 0.9799 -0
vn 0.13302 0.99111 -0
vn -0.00078 1 -0
vn -0.06813 0.99768 -0
vn -0.201 0.97959 -0
vn -0.26652 0.96383 -0
vn -0.39308 0.9195 -0
vn -0.45412 0.89094 0
vn -0.56924 0.82217 0
vn -0.62332 0.78197 0
vn -0.72234 0.69154 0
vn -0.76728 0.64132 0
vn -0.84618 0.53289 0
vn -0.88015 0.47469 0
vn 0.02734 0.99963 -0
vn 0.18197 -0.9833 0
vn 0.29235 -0.95631 0
vn 0.49789 -0.86724 -0
vn 0.59305 -0.80516 -0
vn 0.7574 -0.65295 -0
vn 0.82658 -0.56281 -0
vn 0.93113 -0.3647 -0
vn 0.96649 -0.25671 -0
vn 0.99938 -0.03513 -0
vn 0.99692 0.07847 -0
vn 0.95444 0.29841 -0
vn 0.91442 0.40476 -0
vn 0.80138 0.59815 -0
vn 0.72836 0.6852 -0
vn 0.55756 0.83014 -0
vn 0.45979 0.88803 -0
vn 0.25057 0.9681 -0
vn 0.13914 0.99027 -0
vn 0.0707 -0.9975 0
vn 0.50101 -0.86544 -0
vn 0.547 -0.83713 -0
vn 0.63381 -0.77349 -0
vn 0.67464 -0.73815 -0
vn 0.75007 -0.66136 -0
vn 0.78468 -0.61991 -0
vn 0.84676 -0.53197 -0
vn 0.87424 -0.48549 -0
vn 0.99415 -0.10801 -0
vn 0.99932 -0.03679 -0
vn 0.99604 0.08893 -0
vn 0.98965 0.14348 -0
vn 0.96332 0.26835 -0
vn 0.94107 0.3382 -0
vn 0.91209 0.40998 -0
vn 0.91024 0.41408 -0
vn -0.94269 -0.33367 0
vn -0.90428 -0.42694 0
vn -0.81623 -0.57773 0
vn -0.77042 -0.63754 0
vn -0.71904 -0.69497 0
vn -0.71755 -0.69651 0
vn -0.69759 -0.7165 0
vn -0.67863 -0.73448 0
vn 0.91211 -0.40994 -0
vn 0.93905 -0.34379 -0
vn 0.97477 -0.22322 -0
vn 0.98555 -0.16936 -0
vn 0.9991 -0.04246 -0
vn 0.99952 0.03084 -0
vn 0.99414 0.10806 -0
vn 0.99365 0.11253 -0
vn -0.99966 -0.02603 0
vn -0.99195 -0.1266 0
vn -0.95481 -0.29722 0
vn -0.92972 -0.36827 0
vn -0.8986 -0.43876 0
vn -0.89766 -0.44068 0
vn -0.88486 -0.46587 0
vn -0.87238 -0.48883 0
vn 0.7408 -0.67173 -0
vn 0.78685 -0.61715 -0
vn 0.85808 -0.51351 -0
vn 0.88498 -0.46562 -0
vn 0.93708 -0.34912 -0
vn 0.96013 -0.27954 -0
vn 0.97888 -0.20443 -0
vn 0.97979 -0.20003 -0
vn -0.95878 0.28415 0
vn -0.98253 0.18612 0
vn -0.99992 0.01238 0
vn -0.99802 -0.06294 0
vn -0.99021 -0.13961 0
vn -0.98991 -0.14172 0
vn -0.98551 -0.16963 0
vn -0.98074 -0.19532 0
vn 0.49696 -0.86777 -0
vn 0.55763 -0.83009 -0
vn 0.6574 -0.75354 -0
vn 0.69778 -0.71631 -0
vn 0.78333 -0.62161 -0
vn 0.82676 -0.56255 -0
vn 0.8678 -0.49692 -0
vn 0.87002 -0.49301 -0
vn -0.82404 0.56653 0
vn -0.87692 0.48063 0
vn -0.94716 0.32077 0
vn -0.96862 0.24854 0
vn -0.98488 0.17322 0
vn -0.98525 0.17111 0
vn -0.98969 0.14321 0
vn -0.9931 0.1173 0
vn 0.20448 -0.97887 0
vn 0.27382 -0.96178 0
vn 0.39237 -0.91981 0
vn 0.44228 -0.89688 -0
vn 0.5529 -0.83325 -0
vn 0.61246 -0.7905 -0
vn 0.67177 -0.74076 -0
vn 0.67509 -0.73773 -0
vn -0.60865 0.79344 0
vn -0.68548 0.72809 0
vn -0.80168 0.59775 0
vn -0.84441 0.5357 0
vn -0.88315 0.46909 0
vn -0.88415 0.4672 0
vn -0.897 0.44203 0
vn -0.90824 0.41845 0
vn -0.10801 -0.99415 0
vn -0.03679 -0.99932 0
vn 0.08893 -0.99604 0
vn 0.14348 -0.98965 0
vn 0.26835 -0.96332 0
vn 0.3382 -0.94107 0
vn 0.40998 -0.91209 0
vn 0.41408 -0.91024 -0
vn -0.33367 0.94269 -0
vn -0.42694 0.90428 0
vn -0.57773 0.81623 0
vn -0.63754 0.77042 0
vn -0.69497 0.71904 0
vn -0.69651 0.71755 0
vn -0.7165 0.69759 0
vn -0.73448 0.67863 0
vn -0.40994 -0.91211 0
vn -0.34379 -0.93905 0
vn -0.22322 -0.97477 0
vn -0.16936 -0.98555 0
vn -0.04246 -0.9991 0
vn 0.03084 -0.99952 0
vn 0.10806 -0.99414 0
vn 0.11253 -0.99365 0
vn -0.02603 0.99966 -0
vn -0.1266 0.99195 -0
vn -0.29722 0.95481 -0
vn -0.36827 0.92972 -0
vn -0.43876 0.8986 0
vn -0.44068 0.89766 0
vn -0.46587 0.88486 0
vn -0.48883 0.87238 0
vn -0.67173 -0.7408 0
vn -0.61715 -0.78685 0
vn -0.51351 -0.85808 0
vn -0.46562 -0.88498 0
vn -0.34912 -0.93708 0
vn -0.27954 -0.96013 0
vn -0.20443 -0.97888 0
vn -0.20003 -0.97979 0
vn 0.28415 0.95878 -0
vn 0.18612 0.98253 -0
vn 0.01238 0.99992 -0
vn -0.06294 0.99802 -0
vn -0.13961 0.99021 -0
vn -0.14172 0.98991 -0
vn -0.16963 0.98551 -0
vn -0.19532 0.98074 -0
vn -0 -0 -1
f 1//1 2//1 3//1
f 3//2 2//2 4//2
f 5//3 6//3 7//3
f 7//4 6//4 8//4
f 9//5 10//5 11//5
f 11//6 10//6 12//6
f 13//7 14//7 15//7
f 15//8 14//8 16//8
f 17//9 18//9 19//9
f 19//10 18//10 20//10
f 21//11 22//11 23//11
f 23//12 22//12 24//12
f 25//13 26//13 27//13
f 27//14 26//14 28//14
f 29//15 30//15 31//15
f 31//16 30//16 32//16
f 31//17 32//17 33//17
f 33//18 32//18 34//18
f 33//19 34//19 35//19
f 35//20 34//20 36//20
f 37//21 38//21 39//21
f 39//22 38//22 40//22
f 8//23 6//23 41//23
f 41//24 6//24 42//24
f 41//25 42//25 43//25
f 43//26 42//26 44//26
f 43//27 44//27 45//27
f 45//28 44//28 46//28
f 47//29 48//29 49//29
f 49//30 48//30 50//30
f 49//31 50//31 51//31
f 51//32 50//32 52//32
f 51//33 52//33 7//33
f 7//34 52//34 5//34
f 53//35 54//35 55//35
f 55//36 54//36 56//36
f 4//37 2//37 57//37
f 57//38 2//38 58//38
f 57//39 58//39 59//39
f 59//40 58//40 60//40
f 59//41 60//41 61//41
f 61//42 60//42 62//42
f 63//43 64//43 65//43
f 65//44 64//44 66//44
f 65//45 66//45 67//45
f 67//46 66//46 68//46
f 67//47 68//47 3//47
f 3//48 68//48 1//48
f 69//49 70//49 71//49
f 71//50 70//50 72//50
f 12//51 10//51 73//51
f 73//52 10//52 74//52
f 73//53 74//53 75//53
f 75//54 74//54 76//54
f 75//55 76//55 77//55
f 77//56 76//56 78//56
f 79//57 80//57 81//57
f 81//58 80//58 82//58
f 81//59 82//59 83//59
f 83//60 82//60 84//60
f 83//61 84//61 11//61
f 11//62 84//62 9//62
f 85//63 86//63 87//63
f 87//64 86//64 88//64
f 16//65 14//65 89//65
f 89//66 14//66 90//66
f 89//67 90//67 91//67
f 91//68 90//68 92//68
f 91//69 92//69 93//69
f 93//70 92//70 94//70
f 95//71 96//71 97//71
f 97//72 96//72 98//72
f 97//73 98//73 99//73
f 99//74 98//74 100//74
f 99//75 100//75 15//75
f 15//76 100//76 13//76
f 101//77 102//77 103//77
f 103//78 102//78 104//78
f 20//79 18//79 105//79
f 105//80 18//80 106//80
f 105//81 106//81 107//81
f 107//82 106//82 108//82
f 107//83 108//83 109//83
f 109//84 108//84 110//84
f 111//85 112//85 113//85
f 113//86 112//86 114//86
f 113//87 114//87 115//87
f 115//88 114//88 116//88
f 115//89 116//89 19//89
f 19//90 116//90 17//90
f 117//91 118//91 119//91
f 119//92 118//92 120//92
f 24//93 22//93 121//93
f 121//94 22//94 122//94
f 121//95 122//95 123//95
f 123//96 122//96 124//96
f 123//97 124//97 125//97
f 125//98 124//98 126//98
f 127//99 128//99 129//99
f 129//100 128//100 130//100
f 129//101 130//101 131//101
f 131//102 130//102 132//102
f 131//103 132//103 23//103
f 23//104 132//104 21//104
f 133//105 134//105 135//105
f 135//106 134//106 136//106
f 28//107 26//107 137//107
f 137//108 26//108 138//108
f 137//109 138//109 139//109
f 139//110 138//110 140//110
f 139//111 140//111 141//111
f 141//112 140//112 142//112
f 143//113 144//113 145//113
f 145//114 144//114 146//114
f 145//115 146//115 147//115
f 147//116 146//116 148//116
f 147//117 148//117 27//117
f 27//118 148//118 25//118
f 149//119 150//119 151//119
f 151//120 150//120 152//120
f 153//121 154//121 155//121
f 155//122 154//122 156//122
f 155//123 156//123 157//123
f 157//124 156//124 158//124
f 157//125 158//125 159//125
f 159//126 158//126 160//126
f 161//127 162//127 163//127
f 164//127 165//127 166//127
f 113//127 115//127 167//127
f 16//127 89//127 168//127
f 164//127 166//127 169//127
f 169//127 166//127 170//127
f 169//127 170//127 163//127
f 162//127 171//127 163//127
f 163//127 171//127 172//127
f 163//127 172//127 173//127
f 161//127 163//127 174//127
f 174//127 163//127 175//127
f 174//127 175//127 176//127
f 176//127 175//127 177//127
f 176//127 177//127 178//127
f 173//127 179//127 163//127
f 163//127 179//127 180//127
f 163//127 180//127 169//127
f 137//127 167//127 28//127
f 28//127 167//127 181//127
f 28//127 181//127 27//127
f 27//127 181//127 182//127
f 27//127 182//127 147//127
f 147//127 182//127 145//127
f 164//127 183//127 165//127
f 165//127 183//127 184//127
f 165//127 184//127 182//127
f 182//127 184//127 185//127
f 182//127 185//127 186//127
f 162//127 187//127 171//127
f 171//127 187//127 188//127
f 171//127 188//127 189//127
f 137//127 139//127 131//127
f 188//127 190//127 189//127
f 189//127 190//127 191//127
f 189//127 191//127 192//127
f 192//127 191//127 193//127
f 194//127 195//127 196//127
f 196//127 195//127 197//127
f 196//127 197//127 193//127
f 193//127 197//127 198//127
f 193//127 198//127 192//127
f 199//127 79//127 200//127
f 200//127 79//127 81//127
f 200//127 81//127 168//127
f 168//127 81//127 83//127
f 168//127 83//127 11//127
f 11//127 12//127 168//127
f 168//127 12//127 73//127
f 168//127 73//127 65//127
f 65//127 73//127 75//127
f 65//127 75//127 63//127
f 63//127 75//127 77//127
f 16//127 168//127 15//127
f 15//127 168//127 167//127
f 15//127 167//127 99//127
f 99//127 167//127 105//127
f 99//127 105//127 107//127
f 201//127 200//127 93//127
f 93//127 200//127 168//127
f 93//127 168//127 91//127
f 91//127 168//127 89//127
f 137//127 131//127 167//127
f 167//127 131//127 23//127
f 167//127 23//127 24//127
f 177//127 202//127 178//127
f 178//127 202//127 203//127
f 178//127 203//127 194//127
f 194//127 203//127 204//127
f 194//127 204//127 195//127
f 70//127 69//127 205//127
f 205//127 69//127 206//127
f 205//127 206//127 207//127
f 113//127 167//127 111//127
f 111//127 167//127 117//127
f 111//127 117//127 208//127
f 208//127 117//127 209//127
f 208//127 209//127 210//127
f 115//127 19//127 167//127
f 167//127 19//127 20//127
f 167//127 20//127 105//127
f 109//127 95//127 107//127
f 107//127 95//127 97//127
f 107//127 97//127 99//127
f 141//127 127//127 139//127
f 139//127 127//127 129//127
f 139//127 129//127 131//127
f 186//127 153//127 182//127
f 182//127 153//127 155//127
f 182//127 155//127 145//127
f 145//127 155//127 157//127
f 145//127 157//127 143//127
f 143//127 157//127 159//127
f 102//127 101//127 211//127
f 211//127 101//127 212//127
f 211//127 212//127 213//127
f 134//127 133//127 214//127
f 214//127 133//127 215//127
f 214//127 215//127 216//127
f 217//127 218//127 117//127
f 117//127 218//127 219//127
f 117//127 219//127 118//127
f 150//127 149//127 220//127
f 220//127 149//127 221//127
f 220//127 221//127 222//127
f 86//127 85//127 223//127
f 223//127 85//127 224//127
f 223//127 224//127 200//127
f 200//127 224//127 225//127
f 200//127 225//127 199//127
f 24//127 121//127 167//127
f 167//127 121//127 123//127
f 167//127 123//127 117//127
f 117//127 123//127 125//127
f 117//127 125//127 217//127
f 31//127 33//127 226//127
f 226//127 33//127 35//127
f 65//127 67//127 168//127
f 168//127 67//127 3//127
f 168//127 3//127 227//127
f 227//127 3//127 4//127
f 227//127 4//127 57//127
f 31//127 226//127 29//127
f 29//127 226//127 37//127
f 29//127 37//127 228//127
f 228//127 37//127 229//127
f 228//127 229//127 230//127
f 207//127 206//127 231//127
f 231//127 206//127 232//127
f 231//127 232//127 77//127
f 77//127 232//127 233//127
f 77//127 233//127 63//127
f 170//127 234//127 163//127
f 163//127 234//127 235//127
f 163//127 235//127 236//127
f 236//127 235//127 237//127
f 236//127 237//127 238//127
f 238//127 237//127 226//127
f 238//127 226//127 239//127
f 239//127 226//127 35//127
f 8//127 226//127 7//127
f 7//127 226//127 227//127
f 7//127 227//127 51//127
f 51//127 227//127 57//127
f 51//127 57//127 59//127
f 240//127 241//127 37//127
f 37//127 241//127 242//127
f 37//127 242//127 38//127
f 213//127 212//127 243//127
f 243//127 212//127 244//127
f 243//127 244//127 109//127
f 109//127 244//127 245//127
f 109//127 245//127 95//127
f 216//127 215//127 246//127
f 246//127 215//127 247//127
f 246//127 247//127 141//127
f 141//127 247//127 248//127
f 141//127 248//127 127//127
f 222//127 221//127 249//127
f 249//127 221//127 250//127
f 249//127 250//127 159//127
f 159//127 250//127 251//127
f 159//127 251//127 143//127
f 8//127 41//127 226//127
f 226//127 41//127 43//127
f 226//127 43//127 37//127
f 37//127 43//127 45//127
f 37//127 45//127 240//127
f 61//127 47//127 59//127
f 59//127 47//127 49//127
f 59//127 49//127 51//127
f 54//127 53//127 252//127
f 252//127 53//127 253//127
f 252//127 253//127 254//127
f 254//127 253//127 255//127
f 255//127 253//127 256//127
f 255//127 256//127 61//127
f 61//127 256//127 257//127
f 61//127 257//127 47//127
f 191//128 258//128 193//128
f 193//129 258//129 259//129
f 193//130 259//130 196//130
f 196//131 259//131 260//131
f 196//132 260//132 194//132
f 194//133 260//133 261//133
f 194//134 261//134 178//134
f 178//135 261//135 262//135
f 178//136 262//136 176//136
f 176//137 262//137 263//137
f 176//138 263//138 174//138
f 174//139 263//139 264//139
f 174//140 264//140 161//140
f 161//141 264//141 265//141
f 161//142 265//142 162//142
f 162//143 265//143 266//143
f 162//144 266//144 187//144
f 187//145 266//145 267//145
f 187//146 267//146 188//146
f 188//147 267//147 268//147
f 188//148 268//148 190//148
f 190//149 268//149 269//149
f 190//150 269//150 191//150
f 191//151 269//151 258//151
f 166//128 270//128 170//128
f 170//129 270//129 271//129
f 170//130 271//130 234//130
f 234//131 271//131 272//131
f 234//132 272//132 235//132
f 235//133 272//133 273//133
f 235//134 273//134 237//134
f 237//135 273//135 274//135
f 237//136 274//136 226//136
f 226//137 274//137 275//137
f 226//138 275//138 227//138
f 227//139 275//139 276//139
f 227//140 276//140 168//140
f 168//141 276//141 277//141
f 168//142 277//142 167//142
f 167//143 277//143 278//143
f 167//144 278//144 181//144
f 181//145 278//145 279//145
f 181//146 279//146 182//146
f 182//147 279//147 280//147
f 182//148 280//148 165//148
f 165//149 280//149 281//149
f 165//150 281//150 166//150
f 166//151 281//151 270//151
f 171//152 282//152 283//152
f 171//153 283//153 172//153
f 172//154 283//154 284//154
f 172//155 284//155 173//155
f 173//156 284//156 285//156
f 173//157 285//157 179//157
f 179//158 285//158 286//158
f 179//159 286//159 180//159
f 180//160 286//160 287//160
f 180//161 287//161 169//161
f 169//162 287//162 288//162
f 169//163 288//163 164//163
f 164//164 288//164 289//164
f 164//165 289//165 183//165
f 183//166 289//166 290//166
f 183//167 290//167 184//167
f 184//168 290//168 291//168
f 184//169 291//169 185//169
f 185//170 291//170 292//170
f 185//171 292//171 186//171
f 186//172 292//172 154//172
f 186//173 154//173 153//173
f 189//174 293//174 171//174
f 171//174 293//174 282//174
f 175//175 294//175 295//175
f 175//176 295//176 177//176
f 177//177 295//177 296//177
f 177//178 296//178 202//178
f 202//179 296//179 297//179
f 202//180 297//180 203//180
f 203//181 297//181 298//181
f 203//182 298//182 204//182
f 204//183 298//183 299//183
f 204//184 299//184 195//184
f 195//185 299//185 300//185
f 195//186 300//186 197//186
f 197//187 300//187 301//187
f 197//188 301//188 198//188
f 198//189 301//189 302//189
f 198//190 302//190 192//190
f 192//191 302//191 293//191
f 192//192 293//192 189//192
f 303//193 294//193 163//193
f 163//193 294//193 175//193
f 35//194 36//194 304//194
f 35//195 304//195 239//195
f 239//196 304//196 305//196
f 239//197 305//197 238//197
f 238//198 305//198 306//198
f 238//199 306//199 236//199
f 236//200 306//200 303//200
f 236//201 303//201 163//201
f 37//202 39//202 307//202
f 37//203 307//203 229//203
f 229//204 307//204 308//204
f 229//205 308//205 230//205
f 230//206 308//206 309//206
f 230//207 309//207 228//207
f 228//208 309//208 30//208
f 228//209 30//209 29//209
f 45//210 46//210 310//210
f 45//211 310//211 240//211
f 240//212 310//212 311//212
f 240//213 311//213 241//213
f 241//214 311//214 312//214
f 241//215 312//215 242//215
f 242//216 312//216 40//216
f 242//217 40//217 38//217
f 53//218 55//218 313//218
f 53//219 313//219 253//219
f 253//220 313//220 314//220
f 253//221 314//221 256//221
f 256//222 314//222 315//222
f 256//223 315//223 257//223
f 257//224 315//224 48//224
f 257//225 48//225 47//225
f 61//226 62//226 316//226
f 61//227 316//227 255//227
f 255//228 316//228 317//228
f 255//229 317//229 254//229
f 254//230 317//230 318//230
f 254//231 318//231 252//231
f 252//232 318//232 56//232
f 252//233 56//233 54//233
f 69//234 71//234 319//234
f 69//235 319//235 206//235
f 206//236 319//236 320//236
f 206//237 320//237 232//237
f 232//238 320//238 321//238
f 232//239 321//239 233//239
f 233//240 321//240 64//240
f 233//241 64//241 63//241
f 77//242 78//242 322//242
f 77//243 322//243 231//243
f 231//244 322//244 323//244
f 231//245 323//245 207//245
f 207//246 323//246 324//246
f 207//247 324//247 205//247
f 205//248 324//248 72//248
f 205//249 72//249 70//249
f 85//250 87//250 325//250
f 85//251 325//251 224//251
f 224//252 325//252 326//252
f 224//253 326//253 225//253
f 225//254 326//254 327//254
f 225//255 327//255 199//255
f 199//256 327//256 80//256
f 199//257 80//257 79//257
f 93//258 94//258 328//258
f 93//259 328//259 201//259
f 201//260 328//260 329//260
f 201//261 329//261 200//261
f 200//262 329//262 330//262
f 200//263 330//263 223//263
f 223//264 330//264 88//264
f 223//265 88//265 86//265
f 101//266 103//266 331//266
f 101//267 331//267 212//267
f 212//268 331//268 332//268
f 212//269 332//269 244//269
f 244//270 332//270 333//270
f 244//271 333//271 245//271
f 245//272 333//272 96//272
f 245//273 96//273 95//273
f 109//274 110//274 334//274
f 109//275 334//275 243//275
f 243//276 334//276 335//276
f 243//277 335//277 213//277
f 213//278 335//278 336//278
f 213//279 336//279 211//279
f 211//280 336//280 104//280
f 211//281 104//281 102//281
f 117//282 119//282 337//282
f 117//283 337//283 209//283
f 209//284 337//284 338//284
f 209//285 338//285 210//285
f 210//286 338//286 339//286
f 210//287 339//287 208//287
f 208//288 339//288 112//288
f 208//289 112//289 111//289
f 125//290 126//290 340//290
f 125//291 340//291 217//291
f 217//292 340//292 341//292
f 217//293 341//293 218//293
f 218//294 341//294 342//294
f 218//295 342//295 219//295
f 219//296 342//296 120//296
f 219//297 120//297 118//297
f 133//298 135//298 343//298
f 133//299 343//299 215//299
f 215//300 343//300 344//300
f 215//301 344//301 247//301
f 247//302 344//302 345//302
f 247//303 345//303 248//303
f 248//304 345//304 128//304
f 248//305 128//305 127//305
f 141//306 142//306 346//306
f 141//307 346//307 246//307
f 246//308 346//308 347//308
f 246//309 347//309 216//309
f 216//310 347//310 348//310
f 216//311 348//311 214//311
f 214//312 348//312 136//312
f 214//313 136//313 134//313
f 149//314 151//314 349//314
f 149//315 349//315 221//315
f 221//316 349//316 350//316
f 221//317 350//317 250//317
f 250//318 350//318 351//318
f 250//319 351//319 251//319
f 251//320 351//320 144//320
f 251//321 144//321 143//321
f 159//322 160//322 352//322
f 159//323 352//323 249//323
f 249//324 352//324 353//324
f 249//325 353//325 222//325
f 222//326 353//326 354//326
f 222//327 354//327 220//327
f 220//328 354//328 152//328
f 220//329 152//329 150//329
f 284//330 274//330 273//330
f 287//330 270//330 288//330
f 288//330 270//330 281//330
f 288//330 281//330 289//330
f 260//330 259//330 301//330
f 289//330 281//330 290//330
f 290//330 281//330 280//330
f 290//330 280//330 291//330
f 44//330 42//330 32//330
f 303//330 282//330 267//330
f 301//330 259//330 302//330
f 302//330 259//330 258//330
f 302//330 258//330 293//330
f 293//330 258//330 269//330
f 293//330 269//330 282//330
f 282//330 269//330 268//330
f 282//330 268//330 267//330
f 158//330 156//330 279//330
f 279//330 156//330 154//330
f 279//330 154//330 280//330
f 280//330 154//330 292//330
f 280//330 292//330 291//330
f 273//330 272//330 284//330
f 284//330 272//330 271//330
f 284//330 271//330 285//330
f 285//330 271//330 270//330
f 285//330 270//330 286//330
f 286//330 270//330 287//330
f 267//330 266//330 303//330
f 303//330 266//330 265//330
f 303//330 265//330 294//330
f 294//330 265//330 264//330
f 294//330 264//330 295//330
f 295//330 264//330 263//330
f 295//330 263//330 296//330
f 296//330 263//330 262//330
f 296//330 262//330 297//330
f 297//330 262//330 261//330
f 25//330 158//330 26//330
f 26//330 158//330 279//330
f 26//330 279//330 138//330
f 138//330 279//330 278//330
f 138//330 278//330 140//330
f 119//330 124//330 278//330
f 278//330 124//330 122//330
f 278//330 122//330 22//330
f 301//330 300//330 260//330
f 260//330 300//330 299//330
f 260//330 299//330 261//330
f 261//330 299//330 298//330
f 261//330 298//330 297//330
f 25//330 148//330 158//330
f 158//330 148//330 146//330
f 158//330 146//330 160//330
f 120//330 342//330 119//330
f 119//330 342//330 341//330
f 329//330 328//330 94//330
f 108//330 100//330 98//330
f 94//330 92//330 277//330
f 277//330 92//330 90//330
f 277//330 90//330 14//330
f 17//330 116//330 278//330
f 44//330 32//330 46//330
f 349//330 151//330 152//330
f 341//330 340//330 119//330
f 119//330 340//330 126//330
f 119//330 126//330 124//330
f 22//330 21//330 278//330
f 278//330 21//330 132//330
f 278//330 132//330 140//330
f 140//330 132//330 130//330
f 140//330 130//330 142//330
f 108//330 98//330 110//330
f 307//330 39//330 40//330
f 76//330 74//330 277//330
f 277//330 74//330 10//330
f 94//330 277//330 329//330
f 329//330 277//330 82//330
f 329//330 82//330 80//330
f 343//330 135//330 136//330
f 331//330 103//330 104//330
f 284//330 283//330 274//330
f 274//330 283//330 282//330
f 274//330 282//330 275//330
f 275//330 282//330 303//330
f 275//330 303//330 276//330
f 276//330 303//330 306//330
f 276//330 306//330 305//330
f 305//330 304//330 276//330
f 276//330 304//330 36//330
f 276//330 36//330 34//330
f 6//330 276//330 42//330
f 42//330 276//330 34//330
f 42//330 34//330 32//330
f 10//330 9//330 277//330
f 277//330 9//330 84//330
f 277//330 84//330 82//330
f 17//330 278//330 18//330
f 18//330 278//330 277//330
f 18//330 277//330 106//330
f 106//330 277//330 14//330
f 106//330 14//330 108//330
f 108//330 14//330 13//330
f 108//330 13//330 100//330
f 5//330 60//330 6//330
f 6//330 60//330 58//330
f 6//330 58//330 276//330
f 276//330 58//330 2//330
f 276//330 2//330 277//330
f 2//330 1//330 277//330
f 277//330 1//330 68//330
f 277//330 68//330 76//330
f 76//330 68//330 66//330
f 76//330 66//330 78//330
f 146//330 144//330 160//330
f 160//330 144//330 351//330
f 160//330 351//330 350//330
f 116//330 114//330 278//330
f 278//330 114//330 112//330
f 278//330 112//330 119//330
f 119//330 112//330 339//330
f 119//330 339//330 337//330
f 337//330 339//330 338//330
f 32//330 30//330 46//330
f 46//330 30//330 309//330
f 46//330 309//330 308//330
f 5//330 52//330 60//330
f 60//330 52//330 50//330
f 60//330 50//330 62//330
f 319//330 71//330 72//330
f 87//330 88//330 325//330
f 325//330 88//330 330//330
f 325//330 330//330 326//330
f 326//330 330//330 329//330
f 326//330 329//330 327//330
f 327//330 329//330 80//330
f 130//330 128//330 142//330
f 142//330 128//330 345//330
f 142//330 345//330 344//330
f 98//330 96//330 110//330
f 110//330 96//330 333//330
f 110//330 333//330 332//330
f 313//330 55//330 56//330
f 152//330 354//330 349//330
f 349//330 354//330 353//330
f 349//330 353//330 350//330
f 350//330 353//330 352//330
f 350//330 352//330 160//330
f 40//330 312//330 307//330
f 307//330 312//330 311//330
f 307//330 311//330 308//330
f 308//330 311//330 310//330
f 308//330 310//330 46//330
f 136//330 348//330 343//330
f 343//330 348//330 347//330
f 343//330 347//330 344//330
f 344//330 347//330 346//330
f 344//330 346//330 142//330
f 104//330 336//330 331//330
f 331//330 336//330 335//330
f 331//330 335//330 332//330
f 332//330 335//330 334//330
f 332//330 334//330 110//330
f 66//330 64//330 78//330
f 78//330 64//330 321//330
f 78//330 321//330 320//330
f 50//330 48//330 62//330
f 62//330 48//330 315//330
f 62//330 315//330 314//330
f 72//330 324//330 319//330
f 319//330 324//330 323//330
f 319//330 323//330 320//330
f 320//330 323//330 322//330
f 320//330 322//330 78//330
f 56//330 318//330 313//330
f 313//330 318//330 317//330
f 313//330 317//330 314//330
f 314//330 317//330 316//330
f 314//330 316//330 62//330
# Vertices: 354, normals: 330, texture coordinates: 0, faces: 712

